<svg xmlns="http://www.w3.org/2000/svg" xmlns:xlink="http://www.w3.org/1999/xlink" viewBox="0 0 316.27 326.16"><defs><style>.cls-1{fill:#fff;}.cls-2{mask:url(#mask);}.cls-3{fill:#eeedee;}.cls-4{fill:#a1a0a0;}.cls-5{fill:#cbcaca;}</style><mask id="mask" x="-0.19" y="-0.58" width="316.46" height="326.74" maskUnits="userSpaceOnUse"><circle class="cls-1" cx="157.42" cy="157.03" r="157.61"/></mask></defs><title>Asset 4</title><g id="Layer_2" data-name="Layer 2"><g id="Profile"><g class="cls-2"><path class="cls-3" d="M0,326.16V0H316.27V326.16ZM131.21,24.82a18.75,18.75,0,0,0-11.13,9.95c-.35.73-1.1,1.69-1.77,1.78a28.51,28.51,0,0,0-13.42,5.82,27.27,27.27,0,0,1-2.53,1.52l1.39,1.22c-3.21,4.39-7,8.34-5,14.39.16.47-.21,1.1-.29,1.66-.66,4.75-1.69,9.49-1.88,14.26-.35,8.72,1.38,17.25,3.46,25.69.6,2.43,1.2,4.87,1.85,7.54-2.81-.07-5.25,0-5.65,2.69-.47,3.08-.94,6.37-.32,9.35a91.37,91.37,0,0,0,4.41,13.66A130.17,130.17,0,0,0,106,147.2c1.12,2.19,2.86,4.25,5.64,3.06,1.79,5.27,2.86,10.72,5.42,15.34a32.09,32.09,0,0,1,3.86,18.94,28,28,0,0,1-.61,5.14,7.12,7.12,0,0,1-2,3.39c-3.53,3-7.19,5.8-10.87,8.6-2.43,1.85-4.76,4.1-7.52,5.22-14.32,5.82-28.7,11.5-43.19,16.89-9.86,3.67-20.11,6.26-29.33,11.62C16.79,241.55,10,250.2,8,262.46c-.84,5.4-2.13,10.74-2.65,16.17-.57,5.85-.54,11.75-.65,17.64-.07,3.46.15,6.92.16,10.38,0,6.23,0,12.47,0,18.73H312.49c.3-7.78.67-15.38.86-23,.15-5.71-.2-11.45.15-17.15a68.2,68.2,0,0,0-7.21-34.67c-4-8.15-9.18-14.86-18.26-18-8.7-3-17.17-6.74-25.74-10.15-12.43-5-24.71-10.31-37.33-14.72a35.79,35.79,0,0,1-15-10.25c-2.45-2.67-5.55-4.73-8.31-7.13a4.51,4.51,0,0,1-1.64-2.13c-1-5.48-1-10.87,1.15-16.22s4-11,5.9-16.54c.71-2.06,1.28-4.18,1.91-6.28,3.35,1.43,4.55,1.33,6.07-1.76a75.52,75.52,0,0,0,4.7-12.08c1.81-6.18,3-12.53,4.77-18.72,1.51-5.3.2-7.71-5.22-8.53a.55.55,0,0,1-.3-.21c.87-5,2.34-9.89,2.44-14.81.15-7.58,1.11-15.3-1.56-22.72-1.23-3.43-2.28-6.94-3.64-10.31-6.32-15.71-17.4-26.32-33.84-30.87A109.3,109.3,0,0,0,151.28,25a25.14,25.14,0,0,1-3.19-.34l0-.66,7.1-.72h8.51v-.73h-8.45c-7.48,0-15,0-22.05,2.94-.46.19-1.18-.26-1.78-.41l.34-.33Z"/><path class="cls-4" d="M155.22,23.25l-7.1.72,0,.66a25.14,25.14,0,0,0,3.19.34,109.3,109.3,0,0,1,31.1,4.12C198.81,33.64,209.9,44.25,216.21,60c1.36,3.38,2.4,6.88,3.64,10.31,2.67,7.42,1.71,15.14,1.56,22.72-.1,4.92-1.57,9.81-2.44,14.81a.55.55,0,0,0,.3.21c5.42.82,6.73,3.23,5.22,8.53-1.77,6.19-3,12.54-4.77,18.72a75.52,75.52,0,0,1-4.7,12.08c-1.52,3.09-2.72,3.19-6.07,1.76-.64,2.1-1.2,4.22-1.91,6.28-1.92,5.53-3.7,11.12-5.9,16.54S199,182.66,200,188.15a4.51,4.51,0,0,0,1.64,2.13c2.76,2.4,5.87,4.46,8.31,7.13a35.79,35.79,0,0,0,15,10.25c12.62,4.41,24.9,9.76,37.33,14.72,8.57,3.42,17,7.12,25.74,10.15,9.08,3.17,14.28,9.88,18.26,18a68.2,68.2,0,0,1,7.21,34.67c-.35,5.7,0,11.43-.15,17.15-.19,7.6-.56,15.2-.86,23H4.9c0-6.26,0-12.49,0-18.73,0-3.46-.23-6.92-.16-10.38.11-5.88.09-11.79.65-17.64C5.9,273.2,7.19,267.85,8,262.46c1.92-12.26,8.75-20.9,19.31-27,9.21-5.36,19.46-8,29.33-11.62,14.49-5.39,28.87-11.07,43.19-16.89,2.76-1.12,5.08-3.37,7.52-5.22,3.68-2.79,7.34-5.62,10.87-8.6a7.12,7.12,0,0,0,2-3.39,28,28,0,0,0,.61-5.14A32.09,32.09,0,0,0,117,165.61c-2.56-4.63-3.62-10.08-5.42-15.34-2.78,1.19-4.52-.88-5.64-3.06a130.17,130.17,0,0,1-5.65-12.86,91.37,91.37,0,0,1-4.41-13.66c-.62-3-.15-6.27.32-9.35.4-2.67,2.84-2.76,5.65-2.69-.66-2.67-1.25-5.11-1.85-7.54-2.08-8.44-3.81-17-3.46-25.69.19-4.77,1.22-9.51,1.88-14.26.08-.56.44-1.19.29-1.66-2-6.05,1.77-10,5-14.39l-1.39-1.22a27.27,27.27,0,0,0,2.53-1.52,28.51,28.51,0,0,1,13.42-5.82c.67-.09,1.42-1.05,1.77-1.78a18.75,18.75,0,0,1,11.13-9.95l.23.23c.6.15,1.32.6,1.78.41,7.1-2.95,14.57-2.94,22.05-2.94Z"/><path class="cls-5" d="M155.22,23.25l.05-.73h8.45v.73Z"/><path class="cls-4" d="M131.21,24.82l.58-.1-.34.33Z"/></g></g></g></svg>